# Blender v2.92.0 OBJ File: 'Truck02.blend'
# www.blender.org
mtllib Truck02.mtl
o Cube.001
v -1.071679 -0.082812 0.450000
v -1.071679 1.267457 0.450000
v -1.071679 -0.082812 -0.450000
v -1.071679 1.267457 -0.450000
v 0.178321 -0.082812 0.450000
v 0.178321 1.267457 0.450000
v 0.178321 -0.082812 -0.450000
v 0.178321 1.267457 -0.450000
v 0.204415 0.163097 0.450000
v 0.204415 0.971279 0.450000
v 0.204415 0.163097 -0.450000
v 0.204415 0.971279 -0.450000
v 0.178321 -0.082812 -0.450000
v 0.178321 -0.082812 0.450000
v 0.928321 -0.082812 -0.450000
v 0.928321 -0.082812 0.450000
v 0.495983 0.971279 -0.450000
v 0.873134 0.163097 -0.450000
v 0.873134 0.163097 0.450000
v 0.495983 0.971279 0.450000
v 0.178321 0.117188 0.450000
v 0.178321 1.017188 0.450000
v 0.178321 1.017188 -0.450000
v 0.178321 0.117188 -0.450000
v 0.911763 0.152670 -0.404091
v 0.524879 0.981706 -0.404091
v 0.524879 0.981706 0.404091
v 0.911763 0.152670 0.404091
v 0.508321 1.017188 -0.450000
v 0.928321 0.117188 -0.450000
v 0.928321 0.117188 0.450000
v 0.508321 1.017188 0.450000
v -0.652690 -0.233746 -0.450000
v -0.697819 -0.224769 -0.450000
v -0.736078 -0.199205 -0.450000
v -0.761642 -0.160946 -0.450000
v -0.770619 -0.115817 -0.450000
v -0.761642 -0.070687 -0.450000
v -0.736078 -0.032428 -0.450000
v -0.697819 -0.006864 -0.450000
v -0.652690 0.002113 -0.450000
v -0.607560 -0.006864 -0.450000
v -0.569301 -0.032428 -0.450000
v -0.543737 -0.070687 -0.450000
v -0.534760 -0.115817 -0.450000
v -0.543737 -0.160946 -0.450000
v -0.569301 -0.199205 -0.450000
v -0.607560 -0.224769 -0.450000
v -0.652690 -0.115817 -0.450000
v -0.697819 -0.224769 -0.500000
v -0.652690 -0.233746 -0.500000
v -0.736078 -0.199205 -0.500000
v -0.761642 -0.160946 -0.500000
v -0.770619 -0.115817 -0.500000
v -0.761642 -0.070687 -0.500000
v -0.736078 -0.032428 -0.500000
v -0.697819 -0.006864 -0.500000
v -0.652690 0.002113 -0.500000
v -0.607560 -0.006864 -0.500000
v -0.569301 -0.032428 -0.500000
v -0.543737 -0.070687 -0.500000
v -0.534760 -0.115817 -0.500000
v -0.543737 -0.160946 -0.500000
v -0.569301 -0.199205 -0.500000
v -0.607560 -0.224769 -0.500000
v -0.652690 -0.115817 -0.500000
v 0.525402 -0.233746 0.500000
v 0.480272 -0.224769 0.500000
v 0.442013 -0.199205 0.500000
v 0.416449 -0.160946 0.500000
v 0.407472 -0.115817 0.500000
v 0.416449 -0.070687 0.500000
v 0.442013 -0.032428 0.500000
v 0.480272 -0.006864 0.500000
v 0.525402 0.002113 0.500000
v 0.570531 -0.006864 0.500000
v 0.608790 -0.032428 0.500000
v 0.634354 -0.070687 0.500000
v 0.643331 -0.115817 0.500000
v 0.634354 -0.160946 0.500000
v 0.608790 -0.199205 0.500000
v 0.570531 -0.224769 0.500000
v 0.525402 -0.115817 0.500000
v 0.480272 -0.224769 0.450000
v 0.525402 -0.233746 0.450000
v 0.442013 -0.199205 0.450000
v 0.416449 -0.160946 0.450000
v 0.407472 -0.115817 0.450000
v 0.416449 -0.070687 0.450000
v 0.442013 -0.032428 0.450000
v 0.480272 -0.006864 0.450000
v 0.525402 0.002113 0.450000
v 0.570531 -0.006864 0.450000
v 0.608790 -0.032428 0.450000
v 0.634354 -0.070687 0.450000
v 0.643331 -0.115817 0.450000
v 0.634354 -0.160946 0.450000
v 0.608790 -0.199205 0.450000
v 0.570531 -0.224769 0.450000
v 0.525402 -0.115817 0.450000
v -0.652690 -0.233746 0.500000
v -0.697819 -0.224769 0.500000
v -0.736078 -0.199205 0.500000
v -0.761642 -0.160946 0.500000
v -0.770619 -0.115817 0.500000
v -0.761642 -0.070687 0.500000
v -0.736078 -0.032428 0.500000
v -0.697819 -0.006864 0.500000
v -0.652690 0.002113 0.500000
v -0.607560 -0.006864 0.500000
v -0.569301 -0.032428 0.500000
v -0.543737 -0.070687 0.500000
v -0.534760 -0.115817 0.500000
v -0.543737 -0.160946 0.500000
v -0.569301 -0.199205 0.500000
v -0.607560 -0.224769 0.500000
v -0.652690 -0.115817 0.500000
v -0.697819 -0.224769 0.450000
v -0.652690 -0.233746 0.450000
v -0.736078 -0.199205 0.450000
v -0.761642 -0.160946 0.450000
v -0.770619 -0.115817 0.450000
v -0.761642 -0.070687 0.450000
v -0.736078 -0.032428 0.450000
v -0.697819 -0.006864 0.450000
v -0.652690 0.002113 0.450000
v -0.607560 -0.006864 0.450000
v -0.569301 -0.032428 0.450000
v -0.543737 -0.070687 0.450000
v -0.534760 -0.115817 0.450000
v -0.543737 -0.160946 0.450000
v -0.569301 -0.199205 0.450000
v -0.607560 -0.224769 0.450000
v -0.652690 -0.115817 0.450000
v 0.525402 -0.250000 -0.450000
v 0.480272 -0.237829 -0.450000
v 0.442013 -0.212265 -0.450000
v 0.416449 -0.174006 -0.450000
v 0.407472 -0.128876 -0.450000
v 0.416449 -0.083747 -0.450000
v 0.442013 -0.045488 -0.450000
v 0.480272 -0.019924 -0.450000
v 0.525402 -0.010947 -0.450000
v 0.570531 -0.019924 -0.450000
v 0.608790 -0.045488 -0.450000
v 0.634354 -0.083747 -0.450000
v 0.643331 -0.128876 -0.450000
v 0.634354 -0.174006 -0.450000
v 0.608790 -0.212265 -0.450000
v 0.570531 -0.237829 -0.450000
v 0.525402 -0.128876 -0.450000
v 0.480272 -0.237829 -0.500000
v 0.525402 -0.250000 -0.500000
v 0.442013 -0.212265 -0.500000
v 0.416449 -0.174006 -0.500000
v 0.407472 -0.128876 -0.500000
v 0.416449 -0.083747 -0.500000
v 0.442013 -0.045488 -0.500000
v 0.480272 -0.019924 -0.500000
v 0.525402 -0.010947 -0.500000
v 0.570531 -0.019924 -0.500000
v 0.608790 -0.045488 -0.500000
v 0.634354 -0.083747 -0.500000
v 0.643331 -0.128876 -0.500000
v 0.634354 -0.174006 -0.500000
v 0.608790 -0.212265 -0.500000
v 0.570531 -0.237829 -0.500000
v 0.525402 -0.128876 -0.500000
vt 0.194351 0.583151
vt 0.028434 0.334226
vt 0.194351 0.334226
vt 0.546181 0.277359
vt 0.315741 0.028434
vt 0.546181 0.028434
vt 0.417135 0.580502
vt 0.251218 0.334226
vt 0.417135 0.334226
vt 0.258874 0.277359
vt 0.028434 0.028434
vt 0.258874 0.028434
vt 0.639919 0.564666
vt 0.474002 0.334226
vt 0.639919 0.334226
vt 0.768965 0.258874
vt 0.603048 0.028434
vt 0.768965 0.028434
vt 0.028434 0.583151
vt 0.315741 0.277359
vt 0.251218 0.580502
vt 0.028434 0.277359
vt 0.474002 0.564666
vt 0.603048 0.258874
vt 0.417135 0.840157
vt 0.251218 0.674240
vt 0.417135 0.674240
vt 0.830240 0.639214
vt 0.776488 0.788204
vt 0.706960 0.639214
vt 0.776488 0.342689
vt 0.830240 0.491679
vt 0.706960 0.491679
vt 0.835050 0.500143
vt 0.696786 0.537013
vt 0.696786 0.500143
vt 0.886669 0.028434
vt 0.825833 0.194350
vt 0.825833 0.028434
vt 0.166698 0.640018
vt 0.028434 0.805935
vt 0.028434 0.640018
vt 0.696786 0.630751
vt 0.835050 0.593880
vt 0.835050 0.630751
vt 0.417135 0.637369
vt 0.474002 0.658011
vt 0.639919 0.621533
vt 0.639919 0.658011
vt 0.631455 0.826513
vt 0.482465 0.664927
vt 0.631455 0.664927
vt 0.830240 0.342689
vt 0.835050 0.796668
vt 0.830240 0.788204
vt 0.774214 0.796668
vt 0.774214 0.334226
vt 0.835050 0.334226
vt 0.639919 0.833429
vt 0.474002 0.833429
vt 0.482465 0.826513
vt 0.251218 0.840157
vt 0.835050 0.537013
vt 0.886669 0.194350
vt 0.166698 0.805935
vt 0.696786 0.593880
vt 0.251218 0.637369
vt 0.474002 0.621533
vt 0.573514 0.915860
vt 0.594837 0.911618
vt 0.576761 0.923697
vt 0.582759 0.929695
vt 0.590596 0.932941
vt 0.599079 0.932941
vt 0.606916 0.929695
vt 0.612914 0.923697
vt 0.616160 0.915860
vt 0.616160 0.907377
vt 0.612914 0.899540
vt 0.606916 0.893542
vt 0.599079 0.890296
vt 0.590596 0.890296
vt 0.582759 0.893542
vt 0.576761 0.899540
vt 0.573514 0.907377
vt 0.483246 0.893542
vt 0.491083 0.890296
vt 0.495325 0.911618
vt 0.499566 0.890296
vt 0.507403 0.893542
vt 0.513401 0.899540
vt 0.516647 0.907377
vt 0.516647 0.915860
vt 0.513401 0.923697
vt 0.507403 0.929695
vt 0.499566 0.932941
vt 0.491083 0.932941
vt 0.483246 0.929695
vt 0.477248 0.923697
vt 0.474002 0.915860
vt 0.474002 0.907377
vt 0.477248 0.899540
vt 0.326520 0.927769
vt 0.317302 0.920716
vt 0.326520 0.920716
vt 0.901135 0.620864
vt 0.891917 0.627917
vt 0.891917 0.620864
vt 0.958002 0.643946
vt 0.967220 0.651610
vt 0.958002 0.651610
vt 0.901135 0.627917
vt 0.891917 0.636237
vt 0.958002 0.635474
vt 0.967220 0.643946
vt 0.901135 0.644557
vt 0.901135 0.636237
vt 0.958002 0.627484
vt 0.967220 0.635474
vt 0.891917 0.651610
vt 0.891917 0.644557
vt 0.958002 0.621192
vt 0.967220 0.627484
vt 0.326520 0.904077
vt 0.317302 0.897024
vt 0.326520 0.897024
vt 0.901135 0.715530
vt 0.891917 0.708477
vt 0.901135 0.708477
vt 0.317302 0.912397
vt 0.317302 0.904077
vt 0.901135 0.723850
vt 0.891917 0.732170
vt 0.891917 0.723850
vt 0.891917 0.715530
vt 0.326520 0.912397
vt 0.901135 0.732170
vt 0.891917 0.739223
vt 0.317302 0.927769
vt 0.901135 0.651610
vt 0.967220 0.621192
vt 0.901135 0.739223
vt 0.053998 0.862802
vt 0.049756 0.884125
vt 0.045515 0.862802
vt 0.037678 0.866048
vt 0.031680 0.872047
vt 0.028434 0.879884
vt 0.028434 0.888366
vt 0.031680 0.896203
vt 0.037678 0.902202
vt 0.045515 0.905448
vt 0.053998 0.905448
vt 0.061835 0.902202
vt 0.067833 0.896203
vt 0.071079 0.888366
vt 0.071079 0.879884
vt 0.067833 0.872047
vt 0.061835 0.866048
vt 0.153510 0.905448
vt 0.145028 0.905448
vt 0.149269 0.884125
vt 0.137191 0.902202
vt 0.131192 0.896204
vt 0.127946 0.888366
vt 0.127946 0.879884
vt 0.131192 0.872047
vt 0.137191 0.866049
vt 0.145028 0.862802
vt 0.153510 0.862802
vt 0.161347 0.866049
vt 0.167346 0.872047
vt 0.170592 0.879884
vt 0.170592 0.888366
vt 0.167346 0.896204
vt 0.161348 0.902202
vt 0.958002 0.708477
vt 0.967220 0.715530
vt 0.958002 0.715530
vt 0.905029 0.853535
vt 0.895811 0.860588
vt 0.895811 0.853535
vt 0.961896 0.876290
vt 0.971114 0.883954
vt 0.961896 0.883954
vt 0.905029 0.860588
vt 0.895811 0.868908
vt 0.961896 0.867818
vt 0.971114 0.876290
vt 0.905029 0.877228
vt 0.905029 0.868908
vt 0.961896 0.859828
vt 0.971114 0.867818
vt 0.895811 0.884281
vt 0.895811 0.877228
vt 0.961896 0.853535
vt 0.971114 0.859828
vt 0.958002 0.732170
vt 0.967220 0.739223
vt 0.958002 0.739223
vt 0.943536 0.227352
vt 0.952754 0.234405
vt 0.943536 0.234405
vt 0.967220 0.723850
vt 0.967220 0.732170
vt 0.943536 0.219032
vt 0.952754 0.210712
vt 0.952754 0.219032
vt 0.952754 0.227352
vt 0.958002 0.723850
vt 0.943536 0.210712
vt 0.952754 0.203659
vt 0.967220 0.708477
vt 0.905029 0.884281
vt 0.971114 0.853535
vt 0.943536 0.203659
vt 0.805543 0.892935
vt 0.817622 0.874858
vt 0.813380 0.896181
vt 0.821863 0.896181
vt 0.829700 0.892935
vt 0.835698 0.886936
vt 0.838944 0.879099
vt 0.838944 0.870617
vt 0.835698 0.862780
vt 0.829700 0.856781
vt 0.821863 0.853535
vt 0.813380 0.853535
vt 0.805543 0.856781
vt 0.799545 0.862780
vt 0.796299 0.870616
vt 0.796299 0.879099
vt 0.799545 0.886936
vt 0.706030 0.856781
vt 0.713867 0.853535
vt 0.718109 0.874858
vt 0.722350 0.853535
vt 0.730187 0.856781
vt 0.736185 0.862780
vt 0.739432 0.870617
vt 0.739432 0.879099
vt 0.736185 0.886936
vt 0.730187 0.892935
vt 0.722350 0.896181
vt 0.713868 0.896181
vt 0.706030 0.892935
vt 0.700032 0.886936
vt 0.696786 0.879099
vt 0.696786 0.870617
vt 0.700032 0.862780
vt 0.958002 0.533251
vt 0.967220 0.540304
vt 0.958002 0.540304
vt 0.901135 0.533251
vt 0.891917 0.540304
vt 0.891917 0.533251
vt 0.895811 0.963903
vt 0.905029 0.971567
vt 0.895811 0.971567
vt 0.901135 0.540304
vt 0.891917 0.548624
vt 0.895811 0.955431
vt 0.905029 0.963903
vt 0.901135 0.556944
vt 0.901135 0.548624
vt 0.895811 0.947440
vt 0.905029 0.955431
vt 0.891917 0.563997
vt 0.891917 0.556944
vt 0.895811 0.941148
vt 0.905029 0.947440
vt 0.958002 0.556944
vt 0.967220 0.563997
vt 0.958002 0.563997
vt 0.952753 0.123100
vt 0.943536 0.116046
vt 0.952753 0.116046
vt 0.967220 0.548624
vt 0.967220 0.556944
vt 0.952753 0.131419
vt 0.943536 0.139739
vt 0.943536 0.131419
vt 0.943536 0.123100
vt 0.958002 0.548624
vt 0.952753 0.139739
vt 0.943536 0.146792
vt 0.967220 0.533251
vt 0.901135 0.563997
vt 0.905029 0.941148
vt 0.952753 0.146792
vt 0.901162 0.373625
vt 0.913240 0.355549
vt 0.908999 0.376871
vt 0.917481 0.376871
vt 0.925318 0.373625
vt 0.931317 0.367627
vt 0.934563 0.359790
vt 0.934563 0.351307
vt 0.931317 0.343470
vt 0.925318 0.337472
vt 0.917481 0.334226
vt 0.908999 0.334226
vt 0.901162 0.337472
vt 0.895164 0.343470
vt 0.891917 0.351307
vt 0.891917 0.359790
vt 0.895164 0.367627
vt 0.917481 0.476384
vt 0.908999 0.476384
vt 0.913240 0.455061
vt 0.901162 0.473138
vt 0.895163 0.467140
vt 0.891917 0.459303
vt 0.891917 0.450820
vt 0.895163 0.442983
vt 0.901162 0.436985
vt 0.908999 0.433739
vt 0.917481 0.433739
vt 0.925318 0.436985
vt 0.931317 0.442983
vt 0.934563 0.450820
vt 0.934563 0.459303
vt 0.931317 0.467140
vt 0.925318 0.473138
vt 0.383387 0.897024
vt 0.392605 0.904077
vt 0.383387 0.904077
vt 0.251218 0.927769
vt 0.260435 0.920716
vt 0.260435 0.927769
vt 0.961896 0.963575
vt 0.971114 0.971239
vt 0.961896 0.971239
vt 0.251218 0.920716
vt 0.260435 0.912397
vt 0.961896 0.955103
vt 0.971114 0.963575
vt 0.251218 0.904077
vt 0.251218 0.912397
vt 0.961896 0.947113
vt 0.971114 0.955103
vt 0.260435 0.897024
vt 0.260435 0.904077
vt 0.961896 0.940821
vt 0.971114 0.947113
vt 0.383387 0.920716
vt 0.392605 0.927769
vt 0.383387 0.927769
vt 0.943536 0.052126
vt 0.952753 0.059179
vt 0.943536 0.059179
vt 0.392605 0.912397
vt 0.392605 0.920716
vt 0.943536 0.043806
vt 0.952753 0.035487
vt 0.952753 0.043806
vt 0.952753 0.052126
vt 0.383387 0.912397
vt 0.943536 0.035487
vt 0.952753 0.028434
vt 0.392605 0.897024
vt 0.251218 0.897024
vt 0.971114 0.940821
vt 0.943536 0.028434
vn -1.0000 0.0000 0.0000
vn 0.0000 0.0000 -1.0000
vn 1.0000 0.0000 0.0000
vn 0.0000 0.0000 1.0000
vn 0.0000 -1.0000 0.0000
vn 0.0000 1.0000 0.0000
vn 0.9062 0.4229 0.0000
vn 0.5556 0.8315 0.0000
vn -0.8315 -0.5556 0.0000
vn 0.8315 0.5556 0.0000
vn -0.9808 -0.1951 0.0000
vn 0.9808 0.1951 0.0000
vn -0.9808 0.1951 0.0000
vn 0.9808 -0.1951 0.0000
vn -0.8315 0.5556 0.0000
vn 0.8315 -0.5556 0.0000
vn -0.5556 0.8315 0.0000
vn 0.5556 -0.8315 0.0000
vn -0.1951 0.9808 0.0000
vn -0.1951 -0.9808 0.0000
vn 0.1951 -0.9808 0.0000
vn 0.1951 0.9808 0.0000
vn -0.5556 -0.8315 0.0000
vn -0.2604 -0.9655 0.0000
vn 0.2604 -0.9655 0.0000
usemtl Colours
s off
f 2/1/1 3/2/1 1/3/1
f 4/4/2 7/5/2 3/6/2
f 8/7/3 5/8/3 7/9/3
f 6/10/4 1/11/4 5/12/4
f 7/13/5 1/14/5 3/15/5
f 4/16/6 6/17/6 8/18/6
f 2/1/1 4/19/1 3/2/1
f 4/4/2 8/20/2 7/5/2
f 8/7/3 6/21/3 5/8/3
f 6/10/4 2/22/4 1/11/4
f 7/13/5 5/23/5 1/14/5
f 4/16/6 2/24/6 6/17/6
f 22/25/1 24/26/1 21/27/1
f 11/28/2 17/29/2 18/30/2
f 20/31/4 9/32/4 19/33/4
f 21/34/4 16/35/4 31/36/4
f 23/37/6 32/38/6 29/39/6
f 15/40/5 14/41/5 13/42/5
f 30/43/2 13/44/2 24/45/2
f 24/26/1 14/46/1 21/27/1
f 31/47/3 15/48/3 30/49/3
f 26/50/7 28/51/7 25/52/7
f 10/53/4 21/34/4 9/32/4
f 11/28/2 23/54/2 12/55/2
f 18/30/2 24/45/2 11/28/2
f 12/55/2 29/56/2 17/29/2
f 18/30/2 29/56/2 30/43/2
f 19/33/4 32/57/4 20/31/4
f 19/33/4 21/34/4 31/36/4
f 10/53/4 32/57/4 22/58/4
f 25/52/7 29/59/7 26/50/7
f 28/51/7 30/49/7 25/52/7
f 26/50/7 32/60/7 27/61/7
f 27/61/7 31/47/7 28/51/7
f 22/25/1 23/62/1 24/26/1
f 11/28/2 12/55/2 17/29/2
f 20/31/4 10/53/4 9/32/4
f 21/34/4 14/63/4 16/35/4
f 23/37/6 22/64/6 32/38/6
f 15/40/5 16/65/5 14/41/5
f 30/43/2 15/66/2 13/44/2
f 24/26/1 13/67/1 14/46/1
f 31/47/3 16/68/3 15/48/3
f 26/50/7 27/61/7 28/51/7
f 10/53/4 22/58/4 21/34/4
f 11/28/2 24/45/2 23/54/2
f 18/30/2 30/43/2 24/45/2
f 12/55/2 23/54/2 29/56/2
f 18/30/2 17/29/2 29/56/2
f 19/33/4 31/36/4 32/57/4
f 19/33/4 9/32/4 21/34/4
f 10/53/4 20/31/4 32/57/4
f 25/52/7 30/49/7 29/59/7
f 28/51/7 31/47/7 30/49/7
f 26/50/7 29/59/7 32/60/7
f 27/61/7 32/60/7 31/47/7
f 34/69/4 49/70/4 35/71/4
f 35/71/4 49/70/4 36/72/4
f 36/72/4 49/70/4 37/73/4
f 37/73/4 49/70/4 38/74/4
f 38/74/4 49/70/4 39/75/4
f 39/75/4 49/70/4 40/76/4
f 40/76/4 49/70/4 41/77/4
f 41/77/4 49/70/4 42/78/4
f 42/78/4 49/70/4 43/79/4
f 43/79/4 49/70/4 44/80/4
f 44/80/4 49/70/4 45/81/4
f 45/81/4 49/70/4 46/82/4
f 46/82/4 49/70/4 47/83/4
f 47/83/4 49/70/4 48/84/4
f 48/84/4 49/70/4 33/85/4
f 33/85/4 49/70/4 34/69/4
f 50/86/2 52/87/2 66/88/2
f 52/87/2 53/89/2 66/88/2
f 53/89/2 54/90/2 66/88/2
f 54/90/2 55/91/2 66/88/2
f 55/91/2 56/92/2 66/88/2
f 56/92/2 57/93/2 66/88/2
f 57/93/2 58/94/2 66/88/2
f 58/94/2 59/95/2 66/88/2
f 59/95/2 60/96/2 66/88/2
f 60/96/2 61/97/2 66/88/2
f 61/97/2 62/98/2 66/88/2
f 62/98/2 63/99/2 66/88/2
f 63/99/2 64/100/2 66/88/2
f 64/100/2 65/101/2 66/88/2
f 65/101/2 51/102/2 66/88/2
f 51/102/2 50/86/2 66/88/2
f 43/103/8 59/104/8 42/105/8
f 35/106/9 53/107/9 52/108/9
f 44/109/10 60/110/10 43/111/10
f 36/112/11 54/113/11 53/107/11
f 45/114/12 61/115/12 44/109/12
f 38/116/13 54/113/13 37/117/13
f 46/118/14 62/119/14 45/114/14
f 38/116/15 56/120/15 55/121/15
f 47/122/16 63/123/16 46/118/16
f 40/124/17 56/125/17 39/126/17
f 48/127/18 64/128/18 47/129/18
f 40/124/19 58/130/19 57/131/19
f 33/132/20 50/133/20 51/134/20
f 33/132/21 65/135/21 48/127/21
f 42/105/22 58/130/22 41/136/22
f 34/137/23 52/138/23 50/133/23
f 43/103/8 60/139/8 59/104/8
f 35/106/9 36/112/9 53/107/9
f 44/109/10 61/115/10 60/110/10
f 36/112/11 37/117/11 54/113/11
f 45/114/12 62/119/12 61/115/12
f 38/116/13 55/121/13 54/113/13
f 46/118/14 63/123/14 62/119/14
f 38/116/15 39/140/15 56/120/15
f 47/122/16 64/141/16 63/123/16
f 40/124/17 57/131/17 56/125/17
f 48/127/18 65/135/18 64/128/18
f 40/124/19 41/136/19 58/130/19
f 33/132/20 34/137/20 50/133/20
f 33/132/21 51/134/21 65/135/21
f 42/105/22 59/104/22 58/130/22
f 34/137/23 35/142/23 52/138/23
f 68/143/4 83/144/4 69/145/4
f 69/145/4 83/144/4 70/146/4
f 70/146/4 83/144/4 71/147/4
f 71/147/4 83/144/4 72/148/4
f 72/148/4 83/144/4 73/149/4
f 73/149/4 83/144/4 74/150/4
f 74/150/4 83/144/4 75/151/4
f 75/151/4 83/144/4 76/152/4
f 76/152/4 83/144/4 77/153/4
f 77/153/4 83/144/4 78/154/4
f 78/154/4 83/144/4 79/155/4
f 79/155/4 83/144/4 80/156/4
f 80/156/4 83/144/4 81/157/4
f 81/157/4 83/144/4 82/158/4
f 82/158/4 83/144/4 67/159/4
f 67/159/4 83/144/4 68/143/4
f 84/160/2 86/161/2 100/162/2
f 86/161/2 87/163/2 100/162/2
f 87/163/2 88/164/2 100/162/2
f 88/164/2 89/165/2 100/162/2
f 89/165/2 90/166/2 100/162/2
f 90/166/2 91/167/2 100/162/2
f 91/167/2 92/168/2 100/162/2
f 92/168/2 93/169/2 100/162/2
f 93/169/2 94/170/2 100/162/2
f 94/170/2 95/171/2 100/162/2
f 95/171/2 96/172/2 100/162/2
f 96/172/2 97/173/2 100/162/2
f 97/173/2 98/174/2 100/162/2
f 98/174/2 99/175/2 100/162/2
f 99/175/2 85/176/2 100/162/2
f 85/176/2 84/160/2 100/162/2
f 77/177/8 93/178/8 76/179/8
f 69/180/9 87/181/9 86/182/9
f 78/183/10 94/184/10 77/185/10
f 70/186/11 88/187/11 87/181/11
f 79/188/12 95/189/12 78/183/12
f 72/190/13 88/187/13 71/191/13
f 80/192/14 96/193/14 79/188/14
f 72/190/15 90/194/15 89/195/15
f 81/196/16 97/197/16 80/192/16
f 74/198/17 90/199/17 73/200/17
f 82/201/18 98/202/18 81/203/18
f 74/198/19 92/204/19 91/205/19
f 67/206/20 84/207/20 85/208/20
f 67/206/21 99/209/21 82/201/21
f 76/179/22 92/204/22 75/210/22
f 68/211/23 86/212/23 84/207/23
f 77/177/8 94/213/8 93/178/8
f 69/180/9 70/186/9 87/181/9
f 78/183/10 95/189/10 94/184/10
f 70/186/11 71/191/11 88/187/11
f 79/188/12 96/193/12 95/189/12
f 72/190/13 89/195/13 88/187/13
f 80/192/14 97/197/14 96/193/14
f 72/190/15 73/214/15 90/194/15
f 81/196/16 98/215/16 97/197/16
f 74/198/17 91/205/17 90/199/17
f 82/201/18 99/209/18 98/202/18
f 74/198/19 75/210/19 92/204/19
f 67/206/20 68/211/20 84/207/20
f 67/206/21 85/208/21 99/209/21
f 76/179/22 93/178/22 92/204/22
f 68/211/23 69/216/23 86/212/23
f 102/217/4 117/218/4 103/219/4
f 103/219/4 117/218/4 104/220/4
f 104/220/4 117/218/4 105/221/4
f 105/221/4 117/218/4 106/222/4
f 106/222/4 117/218/4 107/223/4
f 107/223/4 117/218/4 108/224/4
f 108/224/4 117/218/4 109/225/4
f 109/225/4 117/218/4 110/226/4
f 110/226/4 117/218/4 111/227/4
f 111/227/4 117/218/4 112/228/4
f 112/228/4 117/218/4 113/229/4
f 113/229/4 117/218/4 114/230/4
f 114/230/4 117/218/4 115/231/4
f 115/231/4 117/218/4 116/232/4
f 116/232/4 117/218/4 101/233/4
f 101/233/4 117/218/4 102/217/4
f 118/234/2 120/235/2 134/236/2
f 120/235/2 121/237/2 134/236/2
f 121/237/2 122/238/2 134/236/2
f 122/238/2 123/239/2 134/236/2
f 123/239/2 124/240/2 134/236/2
f 124/240/2 125/241/2 134/236/2
f 125/241/2 126/242/2 134/236/2
f 126/242/2 127/243/2 134/236/2
f 127/243/2 128/244/2 134/236/2
f 128/244/2 129/245/2 134/236/2
f 129/245/2 130/246/2 134/236/2
f 130/246/2 131/247/2 134/236/2
f 131/247/2 132/248/2 134/236/2
f 132/248/2 133/249/2 134/236/2
f 133/249/2 119/250/2 134/236/2
f 119/250/2 118/234/2 134/236/2
f 111/251/8 127/252/8 110/253/8
f 103/254/9 121/255/9 120/256/9
f 112/257/10 128/258/10 111/259/10
f 104/260/11 122/261/11 121/255/11
f 113/262/12 129/263/12 112/257/12
f 106/264/13 122/261/13 105/265/13
f 114/266/14 130/267/14 113/262/14
f 106/264/15 124/268/15 123/269/15
f 115/270/16 131/271/16 114/266/16
f 108/272/17 124/273/17 107/274/17
f 116/275/18 132/276/18 115/277/18
f 108/272/19 126/278/19 125/279/19
f 101/280/20 118/281/20 119/282/20
f 101/280/21 133/283/21 116/275/21
f 110/253/22 126/278/22 109/284/22
f 102/285/23 120/286/23 118/281/23
f 111/251/8 128/287/8 127/252/8
f 103/254/9 104/260/9 121/255/9
f 112/257/10 129/263/10 128/258/10
f 104/260/11 105/265/11 122/261/11
f 113/262/12 130/267/12 129/263/12
f 106/264/13 123/269/13 122/261/13
f 114/266/14 131/271/14 130/267/14
f 106/264/15 107/288/15 124/268/15
f 115/270/16 132/289/16 131/271/16
f 108/272/17 125/279/17 124/273/17
f 116/275/18 133/283/18 132/276/18
f 108/272/19 109/284/19 126/278/19
f 101/280/20 102/285/20 118/281/20
f 101/280/21 119/282/21 133/283/21
f 110/253/22 127/252/22 126/278/22
f 102/285/23 103/290/23 120/286/23
f 136/291/4 151/292/4 137/293/4
f 137/293/4 151/292/4 138/294/4
f 138/294/4 151/292/4 139/295/4
f 139/295/4 151/292/4 140/296/4
f 140/296/4 151/292/4 141/297/4
f 141/297/4 151/292/4 142/298/4
f 142/298/4 151/292/4 143/299/4
f 143/299/4 151/292/4 144/300/4
f 144/300/4 151/292/4 145/301/4
f 145/301/4 151/292/4 146/302/4
f 146/302/4 151/292/4 147/303/4
f 147/303/4 151/292/4 148/304/4
f 148/304/4 151/292/4 149/305/4
f 149/305/4 151/292/4 150/306/4
f 150/306/4 151/292/4 135/307/4
f 135/307/4 151/292/4 136/291/4
f 152/308/2 154/309/2 168/310/2
f 154/309/2 155/311/2 168/310/2
f 155/311/2 156/312/2 168/310/2
f 156/312/2 157/313/2 168/310/2
f 157/313/2 158/314/2 168/310/2
f 158/314/2 159/315/2 168/310/2
f 159/315/2 160/316/2 168/310/2
f 160/316/2 161/317/2 168/310/2
f 161/317/2 162/318/2 168/310/2
f 162/318/2 163/319/2 168/310/2
f 163/319/2 164/320/2 168/310/2
f 164/320/2 165/321/2 168/310/2
f 165/321/2 166/322/2 168/310/2
f 166/322/2 167/323/2 168/310/2
f 167/323/2 153/324/2 168/310/2
f 153/324/2 152/308/2 168/310/2
f 145/325/8 161/326/8 144/327/8
f 137/328/9 155/329/9 154/330/9
f 146/331/10 162/332/10 145/333/10
f 138/334/11 156/335/11 155/329/11
f 147/336/12 163/337/12 146/331/12
f 140/338/13 156/335/13 139/339/13
f 148/340/14 164/341/14 147/336/14
f 140/338/15 158/342/15 157/343/15
f 149/344/16 165/345/16 148/340/16
f 142/346/17 158/347/17 141/348/17
f 150/349/18 166/350/18 149/351/18
f 142/346/19 160/352/19 159/353/19
f 135/354/24 152/355/24 153/356/24
f 135/354/25 167/357/25 150/349/25
f 144/327/22 160/352/22 143/358/22
f 136/359/23 154/360/23 152/355/23
f 145/325/8 162/361/8 161/326/8
f 137/328/9 138/334/9 155/329/9
f 146/331/10 163/337/10 162/332/10
f 138/334/11 139/339/11 156/335/11
f 147/336/12 164/341/12 163/337/12
f 140/338/13 157/343/13 156/335/13
f 148/340/14 165/345/14 164/341/14
f 140/338/15 141/362/15 158/342/15
f 149/344/16 166/363/16 165/345/16
f 142/346/17 159/353/17 158/347/17
f 150/349/18 167/357/18 166/350/18
f 142/346/19 143/358/19 160/352/19
f 135/354/24 136/359/24 152/355/24
f 135/354/25 153/356/25 167/357/25
f 144/327/22 161/326/22 160/352/22
f 136/359/23 137/364/23 154/360/23
